<svg width="61" height="18" viewBox="0 0 61 18" fill="none" xmlns="http://www.w3.org/2000/svg">
<path d="M5.70522 17.764C4.58522 17.764 3.61722 17.572 2.80122 17.188C2.00122 16.788 1.29722 16.228 0.689219 15.508L3.47322 12.748C3.76122 13.148 4.09722 13.452 4.48122 13.66C4.88122 13.852 5.32922 13.948 5.82522 13.948C6.25722 13.948 6.64122 13.86 6.97722 13.684C7.32922 13.492 7.60122 13.22 7.79322 12.868C8.00122 12.5 8.10522 12.036 8.10522 11.476V0.483999H12.4012V11.284C12.4012 12.628 12.1292 13.788 11.5852 14.764C11.0572 15.724 10.2892 16.468 9.28122 16.996C8.28922 17.508 7.09722 17.764 5.70522 17.764ZM23.9125 17.764C22.6165 17.764 21.4165 17.548 20.3125 17.116C19.2085 16.668 18.2405 16.052 17.4085 15.268C16.5925 14.468 15.9525 13.532 15.4885 12.46C15.0405 11.388 14.8165 10.228 14.8165 8.98C14.8165 7.716 15.0405 6.556 15.4885 5.5C15.9525 4.428 16.5925 3.5 17.4085 2.716C18.2405 1.932 19.2005 1.316 20.2885 0.868C21.3925 0.42 22.5845 0.196 23.8645 0.196C25.2085 0.196 26.4165 0.412 27.4885 0.844C28.5605 1.26 29.5045 1.844 30.3205 2.596L27.4405 5.476C27.0405 5.028 26.5445 4.676 25.9525 4.42C25.3605 4.164 24.6645 4.036 23.8645 4.036C23.1765 4.036 22.5445 4.148 21.9685 4.372C21.4085 4.596 20.9205 4.932 20.5045 5.38C20.0885 5.812 19.7605 6.332 19.5205 6.94C19.2965 7.548 19.1845 8.228 19.1845 8.98C19.1845 9.732 19.2965 10.412 19.5205 11.02C19.7605 11.628 20.0885 12.156 20.5045 12.604C20.9205 13.036 21.4085 13.372 21.9685 13.612C22.5445 13.836 23.1765 13.948 23.8645 13.948C24.6645 13.948 25.3685 13.828 25.9765 13.588C26.5845 13.332 27.1045 12.972 27.5365 12.508L30.4165 15.388C29.5845 16.14 28.6405 16.724 27.5845 17.14C26.5445 17.556 25.3205 17.764 23.9125 17.764ZM36.6673 17.5V0.603999H40.9633V17.5H36.6673ZM31.4593 4.18V0.483999H46.1713V4.18H31.4593ZM48.6253 17.5V0.483999H52.9213V17.5H48.6253ZM52.0333 11.14V7.516H60.4573V11.14H52.0333ZM52.0333 4.108V0.483999H60.8413V4.108H52.0333Z" fill="url(#paint0_linear_6006_967)"/>
<defs>
<linearGradient id="paint0_linear_6006_967" x1="0.910874" y1="-5.50225" x2="19.2205" y2="41.2883" gradientUnits="userSpaceOnUse">
<stop stop-color="#6366F1"/>
<stop offset="1" stop-color="#1E1B4B"/>
</linearGradient>
</defs>
</svg>
