<svg width="24" height="24" viewBox="0 0 24 24" fill="none" xmlns="http://www.w3.org/2000/svg">
<path d="M3.33999 17C2.91674 16.2691 2.58779 15.4875 2.36099 14.674C2.85435 14.4232 3.26871 14.0408 3.55823 13.5691C3.84775 13.0974 4.00115 12.5548 4.00146 12.0014C4.00178 11.4479 3.84898 10.9052 3.55999 10.4332C3.27099 9.96119 2.85707 9.57833 2.36399 9.32697C2.81615 7.69273 3.67644 6.2003 4.86399 4.98997C5.3281 5.29198 5.86673 5.45964 6.42025 5.47441C6.97377 5.48917 7.52057 5.35045 8.00012 5.07362C8.47966 4.79678 8.87323 4.39263 9.13725 3.90591C9.40127 3.41919 9.52543 2.8689 9.49599 2.31597C11.1382 1.89236 12.8613 1.89339 14.503 2.31897C14.4741 2.87165 14.5987 3.42154 14.863 3.90781C15.1272 4.39408 15.5209 4.79778 16.0003 5.07424C16.4797 5.3507 17.0263 5.48915 17.5795 5.47428C18.1328 5.45941 18.6711 5.29179 19.135 4.98997C20.3214 6.20128 21.1824 7.6928 21.638 9.32597C21.1447 9.57687 20.7304 9.95935 20.441 10.4311C20.1515 10.9028 19.9982 11.4454 19.998 11.9989C19.9978 12.5523 20.1507 13.095 20.4398 13.567C20.7289 14.0389 21.1429 14.4217 21.636 14.673C21.1835 16.3073 20.3229 17.7998 19.135 19.01C18.6709 18.708 18.1323 18.5403 17.5787 18.5255C17.0252 18.5108 16.4784 18.6495 15.9989 18.9263C15.5193 19.2032 15.1258 19.6073 14.8617 20.094C14.5977 20.5807 14.4736 21.131 14.503 21.684C12.8608 22.1079 11.1378 22.1072 9.49599 21.682C9.52491 21.1294 9.40041 20.5795 9.13628 20.0933C8.87215 19.607 8.47868 19.2033 7.99937 18.9267C7.52007 18.6502 6.97361 18.5116 6.42044 18.5263C5.86727 18.541 5.32894 18.7084 4.86499 19.01C4.27349 18.4071 3.76174 17.7317 3.33999 17ZM8.99899 17.196C10.0642 17.8111 10.8652 18.7973 11.249 19.966C11.749 20.0126 12.2487 20.0133 12.748 19.968C13.1313 18.7986 13.9324 17.8116 14.998 17.196C16.0638 16.5804 17.3193 16.3796 18.524 16.632C18.814 16.2226 19.0633 15.79 19.272 15.334C18.4524 14.4169 17.9995 13.2299 18 12C18 10.74 18.47 9.56297 19.273 8.66597C19.0642 8.21078 18.8131 7.77621 18.523 7.36797C17.3193 7.61961 16.065 7.41882 15 6.80397C13.9348 6.18883 13.1337 5.20263 12.75 4.03397C12.25 3.98664 11.75 3.9863 11.25 4.03297C10.8665 5.20201 10.0654 6.18859 8.99999 6.80397C7.93414 7.41956 6.67868 7.62038 5.47399 7.36797C5.18333 7.7773 4.93433 8.20997 4.72699 8.66597C5.54699 9.58288 6.00022 10.7699 5.99999 12C5.99999 13.26 5.52899 14.437 4.72699 15.334C4.93581 15.7892 5.18692 16.2237 5.47699 16.632C6.68073 16.3803 7.93498 16.5811 8.99999 17.196M12 15C11.2043 15 10.4413 14.6839 9.87867 14.1213C9.31606 13.5587 8.99999 12.7956 8.99999 12C8.99999 11.2043 9.31606 10.4413 9.87867 9.87865C10.4413 9.31604 11.2043 8.99997 12 8.99997C12.7956 8.99997 13.5587 9.31604 14.1213 9.87865C14.6839 10.4413 15 11.2043 15 12C15 12.7956 14.6839 13.5587 14.1213 14.1213C13.5587 14.6839 12.7956 15 12 15ZM12 13C12.2652 13 12.5196 12.8946 12.7071 12.7071C12.8946 12.5195 13 12.2652 13 12C13 11.7348 12.8946 11.4804 12.7071 11.2929C12.5196 11.1053 12.2652 11 12 11C11.7348 11 11.4804 11.1053 11.2929 11.2929C11.1053 11.4804 11 11.7348 11 12C11 12.2652 11.1053 12.5195 11.2929 12.7071C11.4804 12.8946 11.7348 13 12 13Z" fill="white"/>
</svg>
