<svg width="24" height="24" viewBox="0 0 24 24" fill="none" xmlns="http://www.w3.org/2000/svg">
<path d="M12 2C17.523 2 22 6.477 22 12C22 17.523 17.523 22 12 22H2.00001L4.92901 19.071C3.99909 18.1434 3.26162 17.0412 2.75897 15.8278C2.25631 14.6143 1.99839 13.3135 2.00001 12C2.00001 6.477 6.47701 2 12 2ZM16 13H8.00001C8.00001 14.0609 8.42143 15.0783 9.17158 15.8284C9.92173 16.5786 10.9391 17 12 17C13.0609 17 14.0783 16.5786 14.8284 15.8284C15.5786 15.0783 16 14.0609 16 13Z" fill="#EEF2FF"/>
</svg>
