<svg width="24" height="24" viewBox="0 0 24 24" fill="none" xmlns="http://www.w3.org/2000/svg">
<path d="M7 5C7 3.93913 7.42143 2.92172 8.17157 2.17157C8.92172 1.42143 9.93913 1 11 1C12.0609 1 13.0783 1.42143 13.8284 2.17157C14.5786 2.92172 15 3.93913 15 5H20C20.2652 5 20.5196 5.10536 20.7071 5.29289C20.8946 5.48043 21 5.73478 21 6V10.17C21.0002 10.33 20.9619 10.4878 20.8885 10.63C20.815 10.7722 20.7085 10.8947 20.5779 10.9872C20.4473 11.0797 20.2964 11.1394 20.1379 11.1615C19.9794 11.1836 19.8179 11.1673 19.667 11.114C19.3654 11.0078 19.0428 10.9755 18.7261 11.0197C18.4094 11.064 18.108 11.1835 17.847 11.3683C17.5861 11.553 17.3733 11.7977 17.2264 12.0817C17.0795 12.3657 17.0028 12.6808 17.0028 13.0005C17.0028 13.3202 17.0795 13.6353 17.2264 13.9193C17.3733 14.2033 17.5861 14.448 17.847 14.6327C18.108 14.8175 18.4094 14.937 18.7261 14.9813C19.0428 15.0255 19.3654 14.9932 19.667 14.887C19.8177 14.8338 19.9791 14.8174 20.1374 14.8394C20.2958 14.8614 20.4466 14.921 20.5771 15.0133C20.7077 15.1055 20.8142 15.2278 20.8878 15.3697C20.9614 15.5116 20.9999 15.6691 21 15.829V20C21 20.2652 20.8946 20.5196 20.7071 20.7071C20.5196 20.8946 20.2652 21 20 21H4C3.73478 21 3.48043 20.8946 3.29289 20.7071C3.10536 20.5196 3 20.2652 3 20V6C3 5.73478 3.10536 5.48043 3.29289 5.29289C3.48043 5.10536 3.73478 5 4 5H7ZM11 3C10.68 2.99992 10.3646 3.07664 10.0804 3.22372C9.79612 3.3708 9.55133 3.58394 9.36655 3.84524C9.18177 4.10654 9.06239 4.40837 9.01845 4.72537C8.9745 5.04237 9.00727 5.36529 9.114 5.667C9.16729 5.81791 9.18359 5.9794 9.16152 6.13791C9.13945 6.29643 9.07965 6.44733 8.98716 6.57793C8.89466 6.70854 8.77218 6.81504 8.62998 6.88848C8.48779 6.96193 8.33004 7.00017 8.17 7H5V19H19V17C17.9391 17 16.9217 16.5786 16.1716 15.8284C15.4214 15.0783 15 14.0609 15 13C15 11.9391 15.4214 10.9217 16.1716 10.1716C16.9217 9.42143 17.9391 9 19 9V7H13.83C13.67 7.00017 13.5122 6.96193 13.37 6.88848C13.2278 6.81504 13.1053 6.70854 13.0128 6.57793C12.9203 6.44733 12.8606 6.29643 12.8385 6.13791C12.8164 5.9794 12.8327 5.81791 12.886 5.667C12.962 5.459 13 5.23667 13 5C13 4.46957 12.7893 3.96086 12.4142 3.58579C12.0391 3.21071 11.5304 3 11 3Z" fill="white"/>
</svg>
