<svg width="24" height="24" viewBox="0 0 24 24" fill="none" xmlns="http://www.w3.org/2000/svg">
<path d="M19.467 8.6941L19.713 8.1281C20.1455 7.12683 20.9376 6.32402 21.933 5.8781L22.692 5.5391C22.7841 5.49675 22.8621 5.42887 22.9168 5.34353C22.9715 5.25819 23.0005 5.15896 23.0005 5.0576C23.0005 4.95625 22.9715 4.85702 22.9168 4.77168C22.8621 4.68633 22.7841 4.61846 22.692 4.5761L21.975 4.2571C20.9546 3.79848 20.1489 2.96599 19.724 1.9311L19.471 1.3201C19.4338 1.22546 19.369 1.1442 19.285 1.08693C19.201 1.02966 19.1017 0.999023 19 0.999023C18.8983 0.999023 18.799 1.02966 18.715 1.08693C18.631 1.1442 18.5662 1.22546 18.529 1.3201L18.276 1.9301C17.8515 2.96518 17.0462 3.79804 16.026 4.2571L15.308 4.5771C15.2162 4.61958 15.1385 4.68745 15.084 4.77268C15.0295 4.85791 15.0006 4.95695 15.0006 5.0581C15.0006 5.15926 15.0295 5.2583 15.084 5.34353C15.1385 5.42876 15.2162 5.49662 15.308 5.5391L16.068 5.8771C17.0632 6.32347 17.8549 7.12663 18.287 8.1281L18.533 8.6941C18.713 9.1081 19.286 9.1081 19.467 8.6941ZM13.387 6.3391C13.661 6.77244 14.0357 7.09277 14.511 7.3001L15.076 7.5471C15.646 7.79577 16.0537 8.1951 16.299 8.7451L16.637 9.50511C17.364 11.1421 19.528 11.3991 20.709 10.2791L20.8 10.4001C20.939 10.5855 21.0093 10.8134 20.9989 11.0448C20.9885 11.2763 20.898 11.4969 20.743 11.6691L11.743 21.6691C11.6492 21.7732 11.5346 21.8564 11.4066 21.9134C11.2786 21.9704 11.1401 21.9998 11 21.9998C10.8599 21.9998 10.7214 21.9704 10.5934 21.9134C10.4654 21.8564 10.3508 21.7732 10.257 21.6691L1.257 11.6691C1.10197 11.4969 1.01153 11.2763 1.00113 11.0448C0.990734 10.8134 1.06103 10.5855 1.2 10.4001L4.2 6.4001C4.29315 6.27591 4.41393 6.1751 4.55279 6.10568C4.69165 6.03625 4.84476 6.0001 5 6.0001H13.206C13.2573 6.1161 13.3173 6.2291 13.386 6.3391" fill="currentColor"/>
</svg>
