<svg width="16" height="16" viewBox="0 0 16 16" fill="none" xmlns="http://www.w3.org/2000/svg">
<path d="M3.33317 14.6667C3.15636 14.6667 2.98679 14.5965 2.86177 14.4714C2.73674 14.3464 2.6665 14.1769 2.6665 14V2.00004C2.6665 1.82323 2.73674 1.65366 2.86177 1.52864C2.98679 1.40361 3.15636 1.33337 3.33317 1.33337H12.6665C12.8433 1.33337 13.0129 1.40361 13.1379 1.52864C13.2629 1.65366 13.3332 1.82323 13.3332 2.00004V4.00004H11.9998V2.66671H3.99984V13.3334H11.9998V12H13.3332V14C13.3332 14.1769 13.2629 14.3464 13.1379 14.4714C13.0129 14.5965 12.8433 14.6667 12.6665 14.6667H3.33317ZM11.9998 10.6667V8.66671H7.33317V7.33337H11.9998V5.33337L15.3332 8.00004L11.9998 10.6667Z" fill="currentColor"/>
</svg>
