<svg width="14" height="14" viewBox="0 0 14 14" fill="none" xmlns="http://www.w3.org/2000/svg">
<path d="M2.6665 11.0002H3.99984V12.3335H11.9998V1.66683H3.99984V3.00016H2.6665V1.00016C2.6665 0.823352 2.73674 0.653782 2.86177 0.528758C2.98679 0.403734 3.15636 0.333496 3.33317 0.333496H12.6665C12.8433 0.333496 13.0129 0.403734 13.1379 0.528758C13.2629 0.653782 13.3332 0.823352 13.3332 1.00016V13.0002C13.3332 13.177 13.2629 13.3465 13.1379 13.4716C13.0129 13.5966 12.8433 13.6668 12.6665 13.6668H3.33317C3.15636 13.6668 2.98679 13.5966 2.86177 13.4716C2.73674 13.3465 2.6665 13.177 2.6665 13.0002V11.0002ZM3.99984 6.3335H8.6665V7.66683H3.99984V9.66683L0.666504 7.00016L3.99984 4.3335V6.3335Z" fill="currentColor"/>
</svg>
