<svg width="25" height="24" viewBox="0 0 25 24" fill="none" xmlns="http://www.w3.org/2000/svg">
<path d="M12.4996 3C17.8916 3 22.3776 6.88 23.3186 12C22.3786 17.12 17.8916 21 12.4996 21C7.10764 21 2.62164 17.12 1.68164 12C2.62164 6.88 7.10764 3 12.4996 3ZM12.4996 19C14.5393 18.9998 16.5184 18.3071 18.1131 17.0355C19.7078 15.7638 20.8235 13.9884 21.2776 12C20.8223 10.0128 19.7061 8.23896 18.1116 6.96854C16.5172 5.69813 14.5388 5.00635 12.5001 5.00635C10.4615 5.00635 8.4831 5.69813 6.88864 6.96854C5.29419 8.23896 4.178 10.0128 3.72264 12C4.17674 13.9883 5.29231 15.7635 6.88678 17.0352C8.48125 18.3068 10.4602 18.9996 12.4996 19ZM12.4996 16.5C11.3062 16.5 10.1616 16.0259 9.31766 15.182C8.47375 14.3381 7.99964 13.1935 7.99964 12C7.99964 10.8065 8.47375 9.66193 9.31766 8.81802C10.1616 7.97411 11.3062 7.5 12.4996 7.5C13.6931 7.5 14.8377 7.97411 15.6816 8.81802C16.5255 9.66193 16.9996 10.8065 16.9996 12C16.9996 13.1935 16.5255 14.3381 15.6816 15.182C14.8377 16.0259 13.6931 16.5 12.4996 16.5ZM12.4996 14.5C13.1627 14.5 13.7986 14.2366 14.2674 13.7678C14.7362 13.2989 14.9996 12.663 14.9996 12C14.9996 11.337 14.7362 10.7011 14.2674 10.2322C13.7986 9.76339 13.1627 9.5 12.4996 9.5C11.8366 9.5 11.2007 9.76339 10.7319 10.2322C10.263 10.7011 9.99964 11.337 9.99964 12C9.99964 12.663 10.263 13.2989 10.7319 13.7678C11.2007 14.2366 11.8366 14.5 12.4996 14.5Z" fill="currentColor"/>
</svg>
